<svg t="1565249892573" class="icon" viewBox="0 0 1024 1024" version="1.1" xmlns="http://www.w3.org/2000/svg" p-id="8136" width="128" height="128"><path d="M448.391529 915.365647c-40.237176-18.341647-57.103059-47.465412-64.331294-68.698353-14.697412-44.062118 2.891294-82.160941 8.673883-92.762353 1.204706-2.138353 2.409412-4.547765 4.096-6.475294l28.190117-41.472c15.872-24.335059 49.152-49.392941 96.858353-49.392941 19.275294 0 39.273412 4.336941 59.753412 12.528941 23.823059 9.607529 45.778824 24.545882 64.783059 40.749177a670.72 670.72 0 0 1 39.54447-48.700236c-43.158588-24.786824-93.033412-46.471529-140.468705-62.373647-5.782588-1.897412-41.200941-18.311529-19.034353-87.220706h-0.240942c58.096941-60.958118 96.376471-158.780235 96.376471-255.397647 0-148.178824-90.834824-226.002824-203.595294-226.002823-112.519529 0-202.872471 77.824-202.872471 226.002823 0 96.858353 38.309647 195.162353 96.617412 256.120471 22.648471 60.717176-18.070588 83.365647-26.503529 86.497882C168.417882 642.108235 30.117647 721.106824 30.117647 799.442824v29.153882c0 106.496 202.631529 130.590118 390.083765 130.590118 31.804235 0 63.849412-0.692706 95.171764-2.409412-16.143059-13.703529-37.586824-27.949176-66.981647-41.411765z m38.79153-167.966118l-28.912941 42.134589s-20.720941 38.550588 20.961882 57.584941c107.700706 49.152 135.890824 111.796706 151.552 131.794823 16.384 20.48 44.092235 20.48 56.380235-4.126117 43.369412-85.714824 91.316706-271.721412 306.718118-432.911059-256.120471 93.244235-335.149176 293.948235-335.149177 293.948235s-48.911059-74.691765-105.050352-97.340235c-48.911059-19.787294-66.499765 8.914824-66.499765 8.914823z" fill="#63678B" p-id="8137"></path></svg>