<svg t="1565249790722" class="icon" viewBox="0 0 1024 1024" version="1.1" xmlns="http://www.w3.org/2000/svg" p-id="5755" width="128" height="128"><path d="M759.49852445 554.25137778l-43.18094223-43.91480889c0.66104889-6.46257778 0.95459555-13.14474667 0.95459556-19.90087111s-0.29354667-13.29152-0.95459556-19.90087111l43.10698667-43.91480889c13.07192889-7.56394667 17.55136-24.23352889 10.06136889-37.30545778l-40.97706667-71.01326222c-7.56394667-13.07192889-24.23352889-17.55136-37.30545778-10.06136889l-59.63093333 15.34862223a205.73070222 205.73070222 0 0 0-34.44167111-19.90087112l-16.44999111-59.18947555c0-15.05393778-12.26410667-27.31804445-27.31804445-27.31804445h-82.10204444c-15.05507555 0-27.31804445 12.26410667-27.31804444 27.31804445l-16.44999112 59.33624889c-12.19015111 5.50798222-23.72039111 12.26410667-34.44167111 19.90087111l-59.63093333-15.34862223c-13.07192889-7.56394667-29.74151111-3.01056-37.30545778 10.06023112l-40.83029333 71.01326222c-7.56394667 13.07192889-3.01056 29.74151111 10.06023111 37.30545778l43.10698666 43.91480888c-0.66104889 6.46257778-0.95459555 13.14474667-0.95459555 19.90087112 0 6.68330667 0.29354667 13.29152 0.95459555 19.90087111l-43.10698666 43.91480889c-13.07192889 7.56394667-17.55136 24.23352889-10.06023111 37.30545778l40.97706667 71.01326222c7.56394667 13.07192889 24.23352889 17.55136 37.30545777 10.06136888l59.63093333-15.34862222a205.73070222 205.73070222 0 0 0 34.44167112 19.90087112l16.44999111 59.33624888c0 15.05507555 12.26410667 27.31804445 27.31804444 27.31804445h82.02922667c15.05393778 0 27.31804445-12.26410667 27.31804444-27.31804445l16.44999112-59.33624888c12.19015111-5.50798222 23.72039111-12.26410667 34.4416711-19.90087112l59.55697778 15.34862222c13.07192889 7.56394667 29.74151111 3.01056 37.30545778-10.06136888l40.97820444-71.01326222c7.48885333-13.14360889 3.08337778-29.88714667-9.9885511-37.45109334z m-247.11395556 31.87143111c-52.80085333 0-95.68824889-42.88739555-95.68824889-95.68824889s42.88739555-95.68824889 95.68824889-95.68824888 95.68824889 42.88739555 95.68824889 95.68824888c-0.14791111 52.87480889-42.88739555 95.68824889-95.68824889 95.68824889z" p-id="5756"></path><path d="M41.23761778 116.18417778h939.69976889c21.6576 0 39.16231111 17.47968 39.16231111 39.13728V830.95438222c0 21.68263111-17.50471111 39.44448-39.16231111 39.44448H550.53198222v46.62158223H767.67004445c12.78976 0 23.32330667 10.83847111 23.32330666 23.60547555 0 12.81479111-10.53354667 23.60547555-23.32330666 23.60547556H255.04312889c-13.30176 0-23.60547555-10.79068445-23.60547556-23.60547556 0-12.76700445 10.30371555-23.60547555 23.60547556-23.60547555h216.88092444V870.4H41.23761778c-21.6576 0-38.85511111-17.76184889-38.85511111-39.44448V155.32145778c0-21.6576 17.19751111-39.13728 38.85511111-39.13728z m900.84807111 78.29959111H80.40334222v597.61550223h861.68234667V194.48376889z" p-id="5757"></path></svg>