<svg width="128" height="100" xmlns="http://www.w3.org/2000/svg">
    <path d="M83.4385057,107.172713 C83.4385057,105.549543 82.3352011,104.235518 80.9764368,104.235518 L46.5107759,104.235518 C45.1521552,104.235518 44.0488506,105.54939 44.0488506,107.172713 L44.0488506,118.920274 L19.4303161,118.920274 L19.4303161,127.73003 L108.054167,127.73003 L108.054167,118.920274 L83.4383621,118.920274 L83.4383621,107.172713 L83.4385057,107.172713 Z M119.107184,0.136737805 L8.38031609,0.136737805 C3.79295977,0.136737805 0.0761494253,4.07743902 0.0761494253,8.9445122 L0.0761494253,91.1785061 C0.0761494253,96.0426829 3.79281609,99.988872 8.38031609,99.988872 L119.107184,99.988872 C123.694684,99.988872 127.411494,96.0426829 127.411494,91.1785061 L127.411494,8.9445122 C127.411494,4.07743902 123.694828,0.136737805 119.107184,0.136737805 Z M119.107184,88.236128 C119.107184,89.8564024 117.866092,91.172561 116.33908,91.172561 L11.1484195,91.172561 C9.61867816,91.172561 8.3808908,89.8565549 8.3808908,88.236128 L8.3808908,11.8785061 C8.3808908,10.2547256 9.61867816,8.94146341 11.1484195,8.94146341 L116.338937,8.94146341 C117.865805,8.94146341 119.107184,10.254878 119.107184,11.8785061 L119.107184,88.236128 L119.107184,88.236128 Z M18.2614943,46.8775915 C18.2614943,46.8775915 26.0840517,46.7650915 26.9479885,46.5402439 C27.8117816,46.3150915 28.6594828,45.8935976 29.4913793,45.2748476 L31.0271552,43.9251524 C31.666954,43.3626524 36.6258621,38.2733232 37.2656609,37.5984756 C38.5452586,36.1926829 39.6971264,35.6443598 40.720977,35.9535061 C41.7446839,36.2628049 42.5126437,36.9237805 43.0242816,37.9359756 L47.2472701,48.1431402 C49.4228448,42.8006098 58.9466954,17.9716463 59.0109195,17.6903963 C59.3308908,16.7342988 59.9485632,15.9609756 60.5885057,15.3705793 C61.2283046,14.7800305 63.5163793,13.876372 65.2916667,15.1176829 C66.1097701,15.6897866 66.7632184,16.3971037 67.0191092,17.6905488 C67.0829023,18.0278963 67.2110632,18.9277439 67.4030172,20.3897866 C67.5949713,21.8518293 71.4337644,56.9778963 72.5215517,64.9637195 C73.929023,60.9146341 81.8810345,39.7637195 82.008908,39.5387195 C82.3288793,38.638872 82.7127874,37.9641768 83.1606322,37.5140244 C83.6086207,37.0640244 84.216523,36.754878 84.9844828,36.586128 C86.4560345,36.2487805 86.875,36.4817073 87.6836207,36.9824695 C88.5389368,37.5118902 89.2255747,38.5780488 89.3992816,39.2855183 C89.7048851,40.5275915 93.9323276,52.0940549 93.9323276,52.0940549 C93.9961207,52.0378049 96.6267241,48.4989329 97.2604885,47.4903963 C98.0958333,46.3903963 98.6202586,45.7556402 99.804023,45.4460366 C100.987787,45.1364329 101.70977,45.3027439 102.797701,45.3588415 C103.501293,45.4150915 109.324425,45.4431402 109.324425,45.4431402 L109.324425,52.2929878 C108.940517,52.3492378 104.987931,52.2310976 104.987931,52.2310976 C104.092385,52.1748476 103.260489,52.0931402 102.492529,52.571189 C101.724569,53.0492378 101.65,53.0573171 101.329741,53.5073171 C101.073851,53.9571646 97.9637931,58.9044207 96.6867816,60.6891768 C96.4308908,61.3641768 95.4635057,61.6676829 94.8876437,61.8926829 C94.3204417,62.116258 93.7166886,62.216669 93.1122126,62.1879573 C92.5122244,62.1620547 91.9238649,62.0040882 91.3844828,61.7240854 C90.8406609,61.4428354 90.4727011,61.1054878 90.2806034,60.7118902 C90.0886494,60.3181402 86.412069,51.5954268 85.8362069,50.2457317 C84.1725575,54.9134146 75.3373563,79.3547256 75.2732759,79.6922256 C74.6813218,81.3144817 74.3454023,82.1102134 73.4498563,82.8977134 C72.553592,83.685061 71.6038793,84.0507622 70.3242816,83.9943598 C68.9804598,83.8818598 67.6646552,83.0079268 67.0887931,82.1082317 C66.512931,81.2083841 66.3791667,80.5356707 66.2512931,79.3547256 C66.2512931,79.0734756 66.170977,78.2016768 66.0110632,76.7396341 C65.8511494,75.2775915 65.6433908,73.4216463 65.3873563,71.1722561 C65.1314655,68.922561 62.1238506,41.0568598 61.1643678,32.789939 C59.3727011,37.401372 51.1826149,58.6030488 51.1826149,58.6030488 C50.8626437,59.3342988 50.4307471,60.0089939 49.8869253,60.6277439 C49.3429598,61.2463415 48.4952586,61.527439 47.3433908,61.4713415 C46.191523,61.4713415 45.3277299,61.1198171 44.7518678,60.4169207 C44.1760057,59.713872 43.7281609,58.9125 43.4081897,58.0128049 C43.2163793,57.5629573 39.2810345,48.1150915 38.5132184,46.2028963 C38.0652299,46.7091463 34.6100575,50.2519817 34.0981322,50.7580793 C33.0742816,51.8266768 32.1145115,52.5577744 31.2186782,52.9515244 C30.3228448,53.3452744 29.2670977,53.4856707 28.0512931,53.3733232 C27.4114943,53.3170732 19.7331897,53.457622 18.2614943,53.457622 L18.2614943,46.877439 L18.2614943,46.8775915 Z" id="形状"></path>
</svg>
